<svg width="98" height="114" viewBox="0 0 98 114" fill="none" xmlns="http://www.w3.org/2000/svg">
<path d="M98 83.5C98 104.487 76.2858 113.5 49.5 113.5C22.7142 113.5 1 104.487 1 83.5C1 62.5132 22.7142 41 49.5 41C76.2858 41 98 62.5132 98 83.5Z" fill="url(#paint0_linear_8085_1725)"/>
<circle cx="9.58541" cy="29.0795" r="8" transform="rotate(12.9125 9.58541 29.0795)" fill="#373F67"/>
<circle cx="24.7765" cy="12.0434" r="4" transform="rotate(12.9125 24.7765 12.0434)" fill="#5A85EE"/>
<circle cx="39.3876" cy="8.72451" r="1.5" transform="rotate(12.9125 39.3876 8.72451)" fill="#719CF7"/>
<path d="M61 86C61 81.3056 56.0751 81 50 81C43.9249 81 39 81.3056 39 86C39 90.6944 43.9249 98 50 98C56.0751 98 61 90.6944 61 86Z" fill="url(#paint1_linear_8085_1725)"/>
<path d="M75.5 87.0026C75.5 90.5925 72.5899 93.5026 69 93.5026C65.4101 93.5026 62.5 90.5925 62.5 87.0026C62.5 83.4128 65.4101 80.5026 69 80.5026C72.5899 80.5026 75.5 83.4128 75.5 87.0026Z" fill="#F26C5C"/>
<path d="M75.5 87.0026C75.5 90.5925 72.5899 93.5026 69 93.5026C65.4101 93.5026 62.5 90.5925 62.5 87.0026C62.5 83.4128 65.4101 80.5026 69 80.5026C72.5899 80.5026 75.5 83.4128 75.5 87.0026Z" fill="#F26C5C"/>
<path d="M37 86.828C37 90.4179 34.0899 93.328 30.5 93.328C26.9101 93.328 24 90.4179 24 86.828C24 83.2382 26.9101 80.328 30.5 80.328C34.0899 80.328 37 83.2382 37 86.828Z" fill="#F26C5C"/>
<path d="M37 86.828C37 90.4179 34.0899 93.328 30.5 93.328C26.9101 93.328 24 90.4179 24 86.828C24 83.2382 26.9101 80.328 30.5 80.328C34.0899 80.328 37 83.2382 37 86.828Z" fill="#F26C5C"/>
<circle cx="35.5" cy="78.5" r="3.5" fill="#373E6A"/>
<circle cx="64.5" cy="78.5" r="3.5" fill="#373E6A"/>
<defs>
<linearGradient id="paint0_linear_8085_1725" x1="47" y1="53" x2="61" y2="103.5" gradientUnits="userSpaceOnUse">
<stop stop-color="#B3C9F7"/>
<stop offset="0.5" stop-color="#699AFE"/>
<stop offset="1" stop-color="#3F5C98"/>
</linearGradient>
<linearGradient id="paint1_linear_8085_1725" x1="50" y1="98" x2="50" y2="81" gradientUnits="userSpaceOnUse">
<stop stop-color="#F26C5C"/>
<stop offset="0.9999" stop-color="#8C3F35"/>
</linearGradient>
</defs>
</svg>
